<svg width="237" height="178" viewBox="0 0 237 178" fill="none" xmlns="http://www.w3.org/2000/svg">
<foreignObject x="-20" y="-20" width="366" height="218"><div xmlns="http://www.w3.org/1999/xhtml" style="backdrop-filter:blur(10px);clip-path:url(#bgblur_0_124_383_clip_path);height:100%;width:100%"></div></foreignObject><path data-figma-bg-blur-radius="20" d="M0.5 32C0.5 24.4434 0.501062 18.8262 1.08133 14.5103C1.65966 10.2087 2.80508 7.27461 5.03984 5.03984C7.27461 2.80508 10.2087 1.65966 14.5103 1.08133C18.8262 0.501062 24.4434 0.5 32 0.5L251.367 0.5C256.103 0.5 258.379 0.5038 260.218 0.964197C266.019 2.41691 270.468 7.07781 271.648 12.9409C272.022 14.7991 271.92 17.0726 271.699 21.8039L271.694 21.9054C271.485 26.3723 271.376 28.7081 271.759 30.6632C272.958 36.7756 277.496 41.6921 283.494 43.3748C285.412 43.9131 287.749 43.9908 292.218 44.1394L292.32 44.1428L299.229 44.3725C304.536 44.549 308.481 44.6808 311.577 45.0875C314.666 45.4931 316.858 46.1669 318.677 47.3959C320.463 48.6026 321.978 50.1684 323.125 51.9935C324.293 53.8524 324.893 56.0663 325.196 59.1664C325.499 62.2746 325.5 66.2215 325.5 71.532V146C325.5 153.557 325.499 159.174 324.919 163.49C324.34 167.791 323.195 170.725 320.96 172.96C318.725 175.195 315.791 176.34 311.49 176.919C307.174 177.499 301.557 177.5 294 177.5L32 177.5C24.4434 177.5 18.8262 177.499 14.5103 176.919C10.2087 176.34 7.27461 175.195 5.03984 172.96C2.80508 170.725 1.65966 167.791 1.08133 163.49C0.501062 159.174 0.5 153.557 0.5 146L0.5 32Z" fill="#8788FE" fill-opacity="0.1" stroke="url(#paint0_linear_124_383)"/>
<path d="M52.4 36.51C52.59 36.91 52.5 37.38 52.19 37.68L38.7 50.7C38.31 51.08 37.69 51.08 37.3 50.7L23.81 37.68C23.5 37.38 23.41 36.91 23.6 36.51L28.59 26.08C28.76 25.72 29.11 25.5 29.51 25.5H46.49C46.89 25.5 47.24 25.72 47.41 26.08L52.4 36.51Z" fill="#1AD2A4"/>
<path d="M38 51.49C37.62 51.49 37.25 51.35 36.95 51.06L23.46 38.04C23 37.59 22.87 36.89 23.15 36.3L28.14 25.86C28.39 25.33 28.92 25 29.51 25H46.49C47.08 25 47.61 25.33 47.86 25.87L52.85 36.3C53.13 36.89 53 37.59 52.54 38.05L39.05 51.06C38.75 51.35 38.38 51.49 38 51.49ZM29.51 26C29.3 26 29.13 26.11 29.04 26.29L24.05 36.73C23.96 36.93 24 37.17 24.16 37.33L37.65 50.35C37.85 50.54 38.16 50.54 38.35 50.35L51.84 37.33C52 37.18 52.04 36.93 51.95 36.73L46.96 26.3C46.87 26.11 46.7 26 46.49 26H29.51Z" fill="#455A64"/>
<path d="M38 39.0001C34.47 39.0001 28.5 38.4701 28.5 36.5001C28.5 34.5601 34.27 34.1301 36.04 34.0501C36.35 34.0301 36.55 34.2501 36.56 34.5301C36.57 34.8101 36.36 35.0401 36.09 35.0501C31.72 35.2601 29.61 36.1201 29.5 36.5101C29.65 37.0201 32.7 38.0001 38 38.0001C43.3 38.0001 46.35 37.0201 46.5 36.4901C46.39 36.1201 44.3 35.2701 39.97 35.0501C39.69 35.0401 39.48 34.8001 39.5 34.5301C39.51 34.2601 39.72 34.0501 40.02 34.0601C41.77 34.1501 47.5 34.5901 47.5 36.5101C47.5 38.4701 41.53 39.0001 38 39.0001Z" fill="white"/>
<path d="M44.5 31H31.5C31.22 31 31 30.78 31 30.5C31 30.22 31.22 30 31.5 30H44.5C44.78 30 45 30.22 45 30.5C45 30.78 44.78 31 44.5 31Z" fill="white"/>
<path d="M38 45.5C37.72 45.5 37.5 45.28 37.5 45V38.5C37.5 38.22 37.72 38 38 38C38.28 38 38.5 38.22 38.5 38.5V45C38.5 45.28 38.28 45.5 38 45.5Z" fill="white"/>
<path d="M38 37C37.72 37 37.5 36.78 37.5 36.5V30.5C37.5 30.22 37.72 30 38 30C38.28 30 38.5 30.22 38.5 30.5V36.5C38.5 36.78 38.28 37 38 37Z" fill="white"/>
<path d="M69.7163 25.3359H72.104V32.3379C72.104 33.168 71.9282 33.8662 71.5767 34.4326C71.23 34.999 70.7466 35.4263 70.1265 35.7144C69.5063 36.0024 68.7886 36.1465 67.9731 36.1465C67.1528 36.1465 66.4302 36.0024 65.8052 35.7144C65.1851 35.4263 64.6968 34.999 64.3403 34.4326C63.9888 33.8662 63.813 33.168 63.813 32.3379V25.3359H66.208V32.3379C66.208 32.7969 66.2764 33.1729 66.4131 33.4658C66.5547 33.7539 66.7573 33.9663 67.021 34.103C67.2847 34.2349 67.6021 34.3008 67.9731 34.3008C68.3442 34.3008 68.6592 34.2349 68.918 34.103C69.1816 33.9663 69.3794 33.7539 69.5112 33.4658C69.6479 33.1729 69.7163 32.7969 69.7163 32.3379V25.3359ZM79.3403 33.1875C79.3403 33.0068 79.3135 32.8457 79.2598 32.7041C79.2061 32.5576 79.1084 32.4233 78.9668 32.3013C78.8252 32.1792 78.625 32.0571 78.3662 31.9351C78.1074 31.8081 77.7681 31.6787 77.3481 31.5469C76.8696 31.3906 76.4131 31.2148 75.9785 31.0195C75.5488 30.8193 75.1655 30.5874 74.8286 30.3237C74.4917 30.0601 74.2256 29.7524 74.0303 29.4009C73.8398 29.0493 73.7446 28.6392 73.7446 28.1704C73.7446 27.7163 73.8447 27.3062 74.0449 26.9399C74.2451 26.5737 74.5259 26.2612 74.8872 26.0024C75.2485 25.7388 75.6733 25.5386 76.1616 25.4019C76.6499 25.2603 77.187 25.1895 77.7729 25.1895C78.5542 25.1895 79.2402 25.3286 79.8311 25.6069C80.4268 25.8804 80.8906 26.2661 81.2227 26.7642C81.5547 27.2573 81.7207 27.8311 81.7207 28.4854H79.3477C79.3477 28.1973 79.2866 27.9434 79.1645 27.7236C79.0474 27.499 78.8667 27.3232 78.6226 27.1963C78.3833 27.0693 78.083 27.0059 77.7217 27.0059C77.3701 27.0059 77.0747 27.0596 76.8354 27.167C76.6011 27.2695 76.4229 27.4111 76.3008 27.5918C76.1836 27.7725 76.125 27.9702 76.125 28.1851C76.125 28.356 76.1689 28.5122 76.2568 28.6538C76.3496 28.7905 76.4814 28.9199 76.6523 29.042C76.8281 29.1592 77.043 29.2715 77.2969 29.3789C77.5508 29.4863 77.8413 29.5889 78.1685 29.6865C78.7397 29.8672 79.2451 30.0674 79.6846 30.2871C80.1289 30.5068 80.5024 30.7559 80.8052 31.0342C81.1079 31.3125 81.335 31.6274 81.4863 31.979C81.6426 32.3306 81.7207 32.7285 81.7207 33.1729C81.7207 33.6465 81.6279 34.0664 81.4424 34.4326C81.2617 34.7988 80.998 35.1113 80.6514 35.3701C80.3096 35.624 79.8994 35.8169 79.4209 35.9487C78.9424 36.0806 78.4077 36.1465 77.8169 36.1465C77.2798 36.1465 76.75 36.0781 76.2275 35.9414C75.7051 35.7998 75.2314 35.585 74.8066 35.2969C74.3867 35.0088 74.0498 34.6426 73.7959 34.1982C73.5469 33.749 73.4224 33.2168 73.4224 32.6016H75.8101C75.8101 32.9238 75.8564 33.1973 75.9492 33.4219C76.042 33.6416 76.1738 33.8198 76.3447 33.9565C76.5205 34.0933 76.7329 34.1909 76.9819 34.2495C77.231 34.3081 77.5093 34.3374 77.8169 34.3374C78.1733 34.3374 78.4614 34.2886 78.6812 34.1909C78.9058 34.0884 79.0718 33.9492 79.1792 33.7734C79.2866 33.5977 79.3403 33.4023 79.3403 33.1875ZM86.5034 36H84.1597L84.1743 34.1543H86.5034C87.0356 34.1543 87.4849 34.0322 87.8511 33.7881C88.2173 33.5391 88.4956 33.1729 88.686 32.6895C88.8765 32.2012 88.9717 31.6079 88.9717 30.9097V30.4189C88.9717 29.8916 88.918 29.4277 88.8105 29.0273C88.7031 28.6221 88.5444 28.2827 88.3345 28.0093C88.1245 27.7358 87.8633 27.5308 87.5508 27.394C87.2432 27.2573 86.8892 27.189 86.4888 27.189H84.1157V25.3359H86.4888C87.2114 25.3359 87.8706 25.458 88.4663 25.7021C89.0669 25.9463 89.5845 26.2954 90.019 26.7495C90.4585 27.2036 90.7978 27.7407 91.0371 28.3608C91.2764 28.981 91.396 29.6719 91.396 30.4336V30.9097C91.396 31.6665 91.2764 32.3574 91.0371 32.9824C90.7978 33.6025 90.4585 34.1396 90.019 34.5937C89.5845 35.043 89.0693 35.3896 88.4736 35.6338C87.8779 35.8779 87.2212 36 86.5034 36ZM85.5146 25.3359V36H83.127V25.3359H85.5146ZM97.2627 25.3359V36H94.8823V25.3359H97.2627ZM100.507 25.3359V27.189H91.7036V25.3359L100.507 25.3359Z" fill="white"/>
<path d="M68.1782 47.3242V57.9883H66.7866V47.3242H68.1782ZM71.606 47.3242V48.4814H63.3662V47.3242H71.606ZM75.5391 58.1348C74.9873 58.1348 74.4868 58.042 74.0376 57.8564C73.5933 57.666 73.21 57.3999 72.8877 57.0581C72.5703 56.7163 72.3262 56.311 72.1553 55.8423C71.9844 55.3735 71.8989 54.8608 71.8989 54.3042V53.9966C71.8989 53.3521 71.9941 52.7783 72.1846 52.2754C72.375 51.7676 72.6338 51.3379 72.9609 50.9863C73.2881 50.6348 73.6592 50.3687 74.0742 50.188C74.4893 50.0073 74.9189 49.917 75.3633 49.917C75.9297 49.917 76.418 50.0146 76.8281 50.21C77.2432 50.4053 77.5825 50.6787 77.8462 51.0303C78.1099 51.377 78.3052 51.7871 78.4321 52.2607C78.5591 52.7295 78.6226 53.2422 78.6226 53.7988V54.4067H72.7046V53.3008H77.2676V53.1982C77.248 52.8467 77.1748 52.5049 77.0479 52.1729C76.9258 51.8408 76.7305 51.5674 76.4619 51.3525C76.1934 51.1377 75.8271 51.0303 75.3633 51.0303C75.0557 51.0303 74.7725 51.0962 74.5137 51.228C74.2549 51.355 74.0327 51.5454 73.8472 51.7993C73.6616 52.0532 73.5176 52.3633 73.415 52.7295C73.3125 53.0957 73.2612 53.5181 73.2612 53.9966V54.3042C73.2612 54.6802 73.3125 55.0342 73.415 55.3662C73.5225 55.6934 73.6763 55.9814 73.8765 56.2305C74.0815 56.4795 74.3281 56.6748 74.6162 56.8164C74.9092 56.958 75.2412 57.0288 75.6123 57.0288C76.0908 57.0288 76.4961 56.9312 76.8281 56.7358C77.1602 56.5405 77.4507 56.2793 77.6997 55.9521L78.52 56.604C78.3491 56.8628 78.1318 57.1094 77.8682 57.3437C77.6045 57.5781 77.2798 57.7686 76.894 57.915C76.5132 58.0615 76.0615 58.1348 75.5391 58.1348ZM83.5225 50.0635V51.1035H79.2378V50.0635H83.5225ZM80.688 48.1372H82.043V56.0254C82.043 56.2939 82.0845 56.4966 82.1675 56.6333C82.2505 56.77 82.3579 56.8604 82.4897 56.9043C82.6216 56.9482 82.7632 56.9702 82.9145 56.9702C83.0269 56.9702 83.144 56.9604 83.2661 56.9409C83.3931 56.9165 83.4883 56.897 83.5518 56.8823L83.5591 57.9883C83.4517 58.0225 83.3101 58.0542 83.1343 58.0835C82.9634 58.1177 82.7559 58.1348 82.5117 58.1348C82.1797 58.1348 81.8745 58.0688 81.5962 57.937C81.3179 57.8052 81.0957 57.5854 80.9297 57.2778C80.7686 56.9653 80.688 56.5454 80.688 56.0181V48.1372ZM86.4668 46.7383V57.9883H85.1118V46.7383H86.4668ZM86.1445 53.7256L85.5806 53.7036C85.5854 53.1616 85.666 52.6611 85.8223 52.2021C85.9785 51.7383 86.1982 51.3354 86.4814 50.9937C86.7646 50.6519 87.1016 50.3882 87.4922 50.2026C87.8877 50.0122 88.3247 49.917 88.8032 49.917C89.1938 49.917 89.5454 49.9707 89.8579 50.0781C90.1704 50.1807 90.4365 50.3467 90.6562 50.5762C90.8809 50.8057 91.0518 51.1035 91.1689 51.4697C91.2861 51.8311 91.3447 52.2729 91.3447 52.7954V57.9883H89.9824V52.7808C89.9824 52.3657 89.9214 52.0337 89.7993 51.7847C89.6772 51.5308 89.499 51.3477 89.2646 51.2354C89.0303 51.1182 88.7422 51.0596 88.4004 51.0596C88.0635 51.0596 87.7559 51.1304 87.4775 51.272C87.2041 51.4136 86.9673 51.6089 86.7671 51.8579C86.5718 52.1069 86.418 52.3926 86.3057 52.7148C86.1982 53.0322 86.1445 53.3691 86.1445 53.7256ZM96.6621 58.1348C96.1103 58.1348 95.6099 58.042 95.1606 57.8564C94.7163 57.666 94.333 57.3999 94.0107 57.0581C93.6934 56.7163 93.4492 56.311 93.2783 55.8423C93.1074 55.3735 93.022 54.8608 93.022 54.3042V53.9966C93.022 53.3521 93.1172 52.7783 93.3076 52.2754C93.498 51.7676 93.7568 51.3379 94.084 50.9863C94.4111 50.6348 94.7822 50.3687 95.1973 50.188C95.6123 50.0073 96.042 49.917 96.4863 49.917C97.0527 49.917 97.541 50.0146 97.9512 50.21C98.3662 50.4053 98.7056 50.6787 98.9692 51.0303C99.2329 51.377 99.4282 51.7871 99.5552 52.2607C99.6821 52.7295 99.7456 53.2422 99.7456 53.7988V54.4067H93.8276V53.3008H98.3906V53.1982C98.3711 52.8467 98.2978 52.5049 98.1709 52.1729C98.0488 51.8408 97.8535 51.5674 97.585 51.3525C97.3164 51.1377 96.9502 51.0303 96.4863 51.0303C96.1787 51.0303 95.8955 51.0962 95.6367 51.228C95.3779 51.355 95.1558 51.5454 94.9702 51.7993C94.7847 52.0532 94.6406 52.3633 94.5381 52.7295C94.4355 53.0957 94.3843 53.5181 94.3843 53.9966V54.3042C94.3843 54.6802 94.4355 55.0342 94.5381 55.3662C94.6455 55.6934 94.7993 55.9814 94.9995 56.2305C95.2046 56.4795 95.4512 56.6748 95.7393 56.8164C96.0322 56.958 96.3643 57.0288 96.7353 57.0288C97.2139 57.0288 97.6191 56.9312 97.9512 56.7358C98.2832 56.5405 98.5737 56.2793 98.8228 55.9521L99.6431 56.604C99.4722 56.8628 99.2549 57.1094 98.9912 57.3437C98.7275 57.5781 98.4028 57.7686 98.0171 57.915C97.6362 58.0615 97.1846 58.1348 96.6621 58.1348ZM102.683 51.3086V57.9883H101.328V50.0635H102.646L102.683 51.3086ZM105.158 50.0195L105.151 51.2793C105.039 51.2549 104.931 51.2402 104.829 51.2354C104.731 51.2256 104.619 51.2207 104.492 51.2207C104.179 51.2207 103.903 51.2695 103.664 51.3672C103.425 51.4648 103.222 51.6016 103.056 51.7773C102.89 51.9531 102.758 52.1631 102.661 52.4072C102.568 52.6465 102.507 52.9102 102.478 53.1982L102.097 53.418C102.097 52.9395 102.143 52.4902 102.236 52.0703C102.333 51.6504 102.482 51.2793 102.683 50.957C102.883 50.6299 103.137 50.376 103.444 50.1953C103.757 50.0098 104.128 49.917 104.558 49.917C104.655 49.917 104.768 49.9292 104.895 49.9536C105.021 49.9731 105.109 49.9951 105.158 50.0195Z" fill="white"/>
<path d="M113.445 80.3633V85.5137H110.668V80.3633H113.445ZM113.094 109.068V113.797H110.316V109.068H113.094ZM114.641 103.25C114.641 102.594 114.529 102.043 114.307 101.598C114.096 101.152 113.744 100.76 113.252 100.42C112.76 100.08 112.109 99.7461 111.301 99.418C109.754 98.8086 108.395 98.1758 107.223 97.5195C106.051 96.8516 105.137 96.0195 104.48 95.0234C103.824 94.0273 103.496 92.75 103.496 91.1914C103.496 89.7383 103.848 88.4785 104.551 87.4121C105.254 86.334 106.227 85.502 107.469 84.916C108.723 84.3301 110.17 84.0371 111.811 84.0371C113.064 84.0371 114.207 84.2246 115.238 84.5996C116.27 84.9746 117.154 85.5137 117.893 86.2168C118.643 86.9199 119.217 87.7871 119.615 88.8184C120.014 89.8379 120.213 91.0039 120.213 92.3164H114.711C114.711 91.625 114.641 91.0273 114.5 90.5234C114.359 90.0078 114.154 89.5859 113.885 89.2578C113.615 88.918 113.299 88.666 112.936 88.502C112.584 88.3379 112.186 88.2559 111.74 88.2559C111.096 88.2559 110.568 88.3906 110.158 88.6602C109.748 88.918 109.449 89.2695 109.262 89.7148C109.074 90.1602 108.98 90.6582 108.98 91.209C108.98 91.7715 109.08 92.2637 109.279 92.6855C109.49 93.1074 109.842 93.4941 110.334 93.8457C110.826 94.1973 111.5 94.5547 112.355 94.918C113.879 95.5391 115.227 96.1953 116.398 96.8867C117.57 97.5664 118.484 98.4043 119.141 99.4004C119.809 100.385 120.143 101.656 120.143 103.215C120.143 104.738 119.785 106.033 119.07 107.1C118.367 108.166 117.377 108.98 116.1 109.543C114.834 110.094 113.369 110.369 111.705 110.369C110.592 110.369 109.49 110.229 108.4 109.947C107.322 109.654 106.338 109.18 105.447 108.523C104.557 107.867 103.848 106.994 103.32 105.904C102.793 104.814 102.529 103.479 102.529 101.896H108.031C108.031 102.717 108.131 103.402 108.33 103.953C108.541 104.492 108.816 104.926 109.156 105.254C109.508 105.57 109.9 105.799 110.334 105.939C110.779 106.08 111.236 106.15 111.705 106.15C112.373 106.15 112.924 106.021 113.357 105.764C113.791 105.506 114.113 105.16 114.324 104.727C114.535 104.281 114.641 103.789 114.641 103.25ZM140.937 94.918V99.4707C140.937 101.346 140.727 102.969 140.305 104.34C139.895 105.711 139.297 106.842 138.512 107.732C137.738 108.623 136.812 109.285 135.734 109.719C134.668 110.141 133.484 110.352 132.184 110.352C131.141 110.352 130.168 110.217 129.266 109.947C128.363 109.678 127.549 109.262 126.822 108.699C126.107 108.125 125.492 107.41 124.977 106.555C124.461 105.699 124.062 104.68 123.781 103.496C123.512 102.312 123.377 100.971 123.377 99.4707V94.918C123.377 93.0195 123.582 91.3906 123.992 90.0312C124.414 88.6719 125.018 87.5469 125.803 86.6562C126.588 85.7656 127.514 85.1094 128.58 84.6875C129.658 84.2656 130.848 84.0547 132.148 84.0547C133.191 84.0547 134.158 84.1895 135.049 84.459C135.951 84.7285 136.766 85.1445 137.492 85.707C138.219 86.2695 138.834 86.9785 139.338 87.834C139.854 88.6895 140.246 89.709 140.516 90.8926C140.797 92.0645 140.937 93.4062 140.937 94.918ZM135.453 100.156V94.1973C135.453 93.3184 135.4 92.5566 135.295 91.9121C135.201 91.2559 135.061 90.6992 134.873 90.2422C134.697 89.7852 134.475 89.416 134.205 89.1348C133.936 88.8535 133.625 88.6484 133.273 88.5195C132.934 88.3789 132.559 88.3086 132.148 88.3086C131.633 88.3086 131.17 88.4141 130.76 88.625C130.35 88.8359 130.004 89.1699 129.723 89.627C129.441 90.0723 129.225 90.6758 129.072 91.4375C128.932 92.1875 128.861 93.1074 128.861 94.1973V100.156C128.861 101.035 128.908 101.803 129.002 102.459C129.107 103.115 129.248 103.678 129.424 104.146C129.611 104.604 129.84 104.979 130.109 105.271C130.379 105.553 130.689 105.758 131.041 105.887C131.393 106.016 131.773 106.08 132.184 106.08C132.699 106.08 133.156 105.98 133.555 105.781C133.953 105.57 134.293 105.236 134.574 104.779C134.867 104.311 135.084 103.695 135.225 102.934C135.377 102.172 135.453 101.246 135.453 100.156ZM144.682 107.398C144.682 106.602 144.963 105.934 145.525 105.395C146.1 104.855 146.844 104.586 147.758 104.586C148.684 104.586 149.422 104.855 149.973 105.395C150.535 105.934 150.816 106.602 150.816 107.398C150.816 108.184 150.535 108.846 149.973 109.385C149.422 109.924 148.684 110.193 147.758 110.193C146.844 110.193 146.1 109.924 145.525 109.385C144.963 108.846 144.682 108.184 144.682 107.398ZM158.568 105.869H158.92C160.209 105.869 161.34 105.723 162.312 105.43C163.285 105.125 164.1 104.674 164.756 104.076C165.424 103.467 165.928 102.711 166.268 101.809C166.607 100.895 166.777 99.8164 166.777 98.5742V93.5117C166.777 92.6328 166.695 91.8711 166.531 91.2266C166.379 90.5703 166.15 90.0254 165.846 89.5918C165.541 89.1582 165.184 88.8359 164.773 88.625C164.363 88.4141 163.912 88.3086 163.42 88.3086C162.904 88.3086 162.447 88.4434 162.049 88.7129C161.662 88.9824 161.328 89.3457 161.047 89.8027C160.766 90.2598 160.555 90.7754 160.414 91.3496C160.273 91.9238 160.203 92.5098 160.203 93.1074C160.203 93.752 160.273 94.3555 160.414 94.918C160.566 95.4805 160.783 95.9727 161.064 96.3945C161.346 96.8164 161.703 97.1504 162.137 97.3965C162.57 97.6309 163.074 97.748 163.648 97.748C164.223 97.748 164.721 97.6426 165.143 97.4316C165.576 97.2207 165.939 96.9395 166.232 96.5879C166.537 96.2363 166.766 95.8555 166.918 95.4453C167.07 95.0234 167.146 94.6074 167.146 94.1973L168.834 95.3223C168.834 96.1074 168.658 96.8809 168.307 97.6426C167.967 98.4043 167.492 99.0957 166.883 99.7168C166.273 100.338 165.564 100.836 164.756 101.211C163.959 101.574 163.109 101.756 162.207 101.756C161.035 101.756 159.98 101.545 159.043 101.123C158.117 100.701 157.332 100.109 156.687 99.3477C156.043 98.5742 155.551 97.6602 155.211 96.6055C154.871 95.5508 154.701 94.3906 154.701 93.125C154.701 91.8828 154.912 90.7168 155.334 89.627C155.756 88.5254 156.354 87.5586 157.127 86.7266C157.9 85.8945 158.82 85.2383 159.887 84.7578C160.965 84.2773 162.154 84.0371 163.455 84.0371C164.732 84.0371 165.904 84.2832 166.971 84.7754C168.037 85.2559 168.969 85.9473 169.766 86.8496C170.562 87.752 171.178 88.8477 171.611 90.1367C172.057 91.4258 172.279 92.8789 172.279 94.4961V96.3945C172.279 98.1289 172.08 99.7227 171.682 101.176C171.283 102.629 170.697 103.918 169.924 105.043C169.162 106.168 168.236 107.123 167.146 107.908C166.068 108.693 164.844 109.291 163.473 109.701C162.113 110.1 160.625 110.299 159.008 110.299H158.568V105.869ZM193.197 102.969C193.197 104.586 192.816 105.945 192.055 107.047C191.293 108.148 190.25 108.975 188.926 109.525C187.613 110.076 186.113 110.352 184.426 110.352C182.75 110.352 181.244 110.076 179.908 109.525C178.584 108.975 177.535 108.148 176.762 107.047C175.988 105.945 175.602 104.586 175.602 102.969C175.602 101.867 175.818 100.877 176.252 99.998C176.697 99.1191 177.312 98.3691 178.098 97.748C178.895 97.127 179.826 96.6523 180.893 96.3242C181.971 95.9961 183.137 95.832 184.391 95.832C186.078 95.832 187.584 96.125 188.908 96.7109C190.244 97.2852 191.293 98.1055 192.055 99.1719C192.816 100.238 193.197 101.504 193.197 102.969ZM187.678 102.564C187.678 101.814 187.537 101.182 187.256 100.666C186.986 100.139 186.605 99.7344 186.113 99.4531C185.621 99.1602 185.047 99.0137 184.391 99.0137C183.734 99.0137 183.16 99.1602 182.668 99.4531C182.176 99.7344 181.789 100.139 181.508 100.666C181.238 101.182 181.104 101.814 181.104 102.564C181.104 103.291 181.244 103.924 181.525 104.463C181.807 104.99 182.193 105.395 182.686 105.676C183.178 105.945 183.758 106.08 184.426 106.08C185.094 106.08 185.668 105.945 186.148 105.676C186.629 105.395 187.004 104.99 187.273 104.463C187.543 103.924 187.678 103.291 187.678 102.564ZM192.652 91.209C192.652 92.5332 192.301 93.6992 191.598 94.707C190.906 95.7031 189.939 96.4824 188.697 97.0449C187.455 97.5957 186.031 97.8711 184.426 97.8711C182.82 97.8711 181.391 97.5957 180.137 97.0449C178.895 96.4824 177.916 95.7031 177.201 94.707C176.498 93.6992 176.146 92.5332 176.146 91.209C176.146 89.6621 176.498 88.3555 177.201 87.2891C177.916 86.2227 178.895 85.4141 180.137 84.8633C181.379 84.3125 182.797 84.0371 184.391 84.0371C186.008 84.0371 187.437 84.3125 188.68 84.8633C189.922 85.4141 190.895 86.2227 191.598 87.2891C192.301 88.3555 192.652 89.6621 192.652 91.209ZM187.168 91.4902C187.168 90.8457 187.057 90.2891 186.834 89.8203C186.623 89.3398 186.312 88.9707 185.902 88.7129C185.492 88.4434 184.988 88.3086 184.391 88.3086C183.816 88.3086 183.324 88.4375 182.914 88.6953C182.504 88.9414 182.187 89.3047 181.965 89.7852C181.754 90.2539 181.648 90.8223 181.648 91.4902C181.648 92.1465 181.754 92.7207 181.965 93.2129C182.187 93.6934 182.504 94.0742 182.914 94.3555C183.336 94.625 183.84 94.7598 184.426 94.7598C185.023 94.7598 185.521 94.625 185.92 94.3555C186.33 94.0742 186.641 93.6934 186.852 93.2129C187.062 92.7207 187.168 92.1465 187.168 91.4902ZM213.975 102.969C213.975 104.586 213.594 105.945 212.832 107.047C212.07 108.148 211.027 108.975 209.703 109.525C208.391 110.076 206.891 110.352 205.203 110.352C203.527 110.352 202.021 110.076 200.686 109.525C199.361 108.975 198.312 108.148 197.539 107.047C196.766 105.945 196.379 104.586 196.379 102.969C196.379 101.867 196.596 100.877 197.029 99.998C197.475 99.1191 198.09 98.3691 198.875 97.748C199.672 97.127 200.604 96.6523 201.67 96.3242C202.748 95.9961 203.914 95.832 205.168 95.832C206.855 95.832 208.361 96.125 209.686 96.7109C211.021 97.2852 212.07 98.1055 212.832 99.1719C213.594 100.238 213.975 101.504 213.975 102.969ZM208.455 102.564C208.455 101.814 208.314 101.182 208.033 100.666C207.764 100.139 207.383 99.7344 206.891 99.4531C206.398 99.1602 205.824 99.0137 205.168 99.0137C204.512 99.0137 203.937 99.1602 203.445 99.4531C202.953 99.7344 202.566 100.139 202.285 100.666C202.016 101.182 201.881 101.814 201.881 102.564C201.881 103.291 202.021 103.924 202.303 104.463C202.584 104.99 202.971 105.395 203.463 105.676C203.955 105.945 204.535 106.08 205.203 106.08C205.871 106.08 206.445 105.945 206.926 105.676C207.406 105.395 207.781 104.99 208.051 104.463C208.32 103.924 208.455 103.291 208.455 102.564ZM213.43 91.209C213.43 92.5332 213.078 93.6992 212.375 94.707C211.684 95.7031 210.717 96.4824 209.475 97.0449C208.232 97.5957 206.809 97.8711 205.203 97.8711C203.598 97.8711 202.168 97.5957 200.914 97.0449C199.672 96.4824 198.693 95.7031 197.979 94.707C197.275 93.6992 196.924 92.5332 196.924 91.209C196.924 89.6621 197.275 88.3555 197.979 87.2891C198.693 86.2227 199.672 85.4141 200.914 84.8633C202.156 84.3125 203.574 84.0371 205.168 84.0371C206.785 84.0371 208.215 84.3125 209.457 84.8633C210.699 85.4141 211.672 86.2227 212.375 87.2891C213.078 88.3555 213.43 89.6621 213.43 91.209ZM207.945 91.4902C207.945 90.8457 207.834 90.2891 207.611 89.8203C207.4 89.3398 207.09 88.9707 206.68 88.7129C206.27 88.4434 205.766 88.3086 205.168 88.3086C204.594 88.3086 204.102 88.4375 203.691 88.6953C203.281 88.9414 202.965 89.3047 202.742 89.7852C202.531 90.2539 202.426 90.8223 202.426 91.4902C202.426 92.1465 202.531 92.7207 202.742 93.2129C202.965 93.6934 203.281 94.0742 203.691 94.3555C204.113 94.625 204.617 94.7598 205.203 94.7598C205.801 94.7598 206.299 94.625 206.697 94.3555C207.107 94.0742 207.418 93.6934 207.629 93.2129C207.84 92.7207 207.945 92.1465 207.945 91.4902ZM222.535 94.8652H225.33C226.127 94.8652 226.783 94.7246 227.299 94.4434C227.826 94.1621 228.213 93.7637 228.459 93.248C228.717 92.7324 228.846 92.1289 228.846 91.4375C228.846 90.8398 228.729 90.3066 228.494 89.8379C228.26 89.3691 227.902 89 227.422 88.7305C226.953 88.4492 226.344 88.3086 225.594 88.3086C225.055 88.3086 224.539 88.4199 224.047 88.6426C223.566 88.8535 223.174 89.1641 222.869 89.5742C222.564 89.9727 222.412 90.4531 222.412 91.0156H216.91C216.91 89.5859 217.297 88.3496 218.07 87.3066C218.855 86.2637 219.893 85.4609 221.182 84.8984C222.482 84.3242 223.9 84.0371 225.436 84.0371C227.205 84.0371 228.758 84.3184 230.094 84.8809C231.441 85.4316 232.484 86.252 233.223 87.3418C233.973 88.4199 234.348 89.7559 234.348 91.3496C234.348 92.1816 234.148 92.9844 233.75 93.7578C233.363 94.5195 232.807 95.1992 232.08 95.7969C231.365 96.3828 230.51 96.8516 229.514 97.2031C228.529 97.543 227.434 97.7129 226.227 97.7129H222.535V94.8652ZM222.535 98.9961V96.2012H226.227C227.562 96.2012 228.758 96.3535 229.812 96.6582C230.867 96.9629 231.764 97.4023 232.502 97.9766C233.24 98.5508 233.803 99.248 234.189 100.068C234.576 100.889 234.77 101.803 234.77 102.811C234.77 104.006 234.535 105.072 234.066 106.01C233.598 106.947 232.941 107.738 232.098 108.383C231.254 109.027 230.264 109.52 229.127 109.859C227.99 110.187 226.76 110.352 225.436 110.352C224.369 110.352 223.309 110.205 222.254 109.912C221.199 109.619 220.244 109.174 219.389 108.576C218.533 107.967 217.848 107.199 217.332 106.273C216.816 105.336 216.559 104.223 216.559 102.934H222.061C222.061 103.531 222.213 104.07 222.518 104.551C222.834 105.02 223.262 105.395 223.801 105.676C224.352 105.945 224.949 106.08 225.594 106.08C226.367 106.08 227.023 105.939 227.562 105.658C228.113 105.365 228.529 104.967 228.811 104.463C229.104 103.959 229.25 103.379 229.25 102.723C229.25 101.832 229.092 101.117 228.775 100.578C228.471 100.027 228.025 99.6289 227.439 99.3828C226.854 99.125 226.15 98.9961 225.33 98.9961H222.535ZM255.529 102.969C255.529 104.586 255.148 105.945 254.387 107.047C253.625 108.148 252.582 108.975 251.258 109.525C249.945 110.076 248.445 110.352 246.758 110.352C245.082 110.352 243.576 110.076 242.24 109.525C240.916 108.975 239.867 108.148 239.094 107.047C238.32 105.945 237.934 104.586 237.934 102.969C237.934 101.867 238.15 100.877 238.584 99.998C239.029 99.1191 239.645 98.3691 240.43 97.748C241.227 97.127 242.158 96.6523 243.225 96.3242C244.303 95.9961 245.469 95.832 246.723 95.832C248.41 95.832 249.916 96.125 251.24 96.7109C252.576 97.2852 253.625 98.1055 254.387 99.1719C255.148 100.238 255.529 101.504 255.529 102.969ZM250.01 102.564C250.01 101.814 249.869 101.182 249.588 100.666C249.318 100.139 248.937 99.7344 248.445 99.4531C247.953 99.1602 247.379 99.0137 246.723 99.0137C246.066 99.0137 245.492 99.1602 245 99.4531C244.508 99.7344 244.121 100.139 243.84 100.666C243.57 101.182 243.436 101.814 243.436 102.564C243.436 103.291 243.576 103.924 243.857 104.463C244.139 104.99 244.525 105.395 245.018 105.676C245.51 105.945 246.09 106.08 246.758 106.08C247.426 106.08 248 105.945 248.48 105.676C248.961 105.395 249.336 104.99 249.605 104.463C249.875 103.924 250.01 103.291 250.01 102.564ZM254.984 91.209C254.984 92.5332 254.633 93.6992 253.93 94.707C253.238 95.7031 252.271 96.4824 251.029 97.0449C249.787 97.5957 248.363 97.8711 246.758 97.8711C245.152 97.8711 243.723 97.5957 242.469 97.0449C241.227 96.4824 240.248 95.7031 239.533 94.707C238.83 93.6992 238.479 92.5332 238.479 91.209C238.479 89.6621 238.83 88.3555 239.533 87.2891C240.248 86.2227 241.227 85.4141 242.469 84.8633C243.711 84.3125 245.129 84.0371 246.723 84.0371C248.34 84.0371 249.77 84.3125 251.012 84.8633C252.254 85.4141 253.227 86.2227 253.93 87.2891C254.633 88.3555 254.984 89.6621 254.984 91.209ZM249.5 91.4902C249.5 90.8457 249.389 90.2891 249.166 89.8203C248.955 89.3398 248.645 88.9707 248.234 88.7129C247.824 88.4434 247.32 88.3086 246.723 88.3086C246.148 88.3086 245.656 88.4375 245.246 88.6953C244.836 88.9414 244.52 89.3047 244.297 89.7852C244.086 90.2539 243.98 90.8223 243.98 91.4902C243.98 92.1465 244.086 92.7207 244.297 93.2129C244.52 93.6934 244.836 94.0742 245.246 94.3555C245.668 94.625 246.172 94.7598 246.758 94.7598C247.355 94.7598 247.854 94.625 248.252 94.3555C248.662 94.0742 248.973 93.6934 249.184 93.2129C249.395 92.7207 249.5 92.1465 249.5 91.4902ZM276.869 100.227V104.48L258.447 104.48L258.148 101.141L268.625 84.4062H272.967L268.256 92.2109L263.492 100.227H276.869ZM274.127 84.4062V110H268.643V84.4062H274.127Z" fill="white"/>
<path d="M112 134.414V144H114V134.414L118.293 138.707L119.707 137.293L113 130.586L106.293 137.293L107.707 138.707L112 134.414Z" fill="url(#paint1_linear_124_383)"/>
<path d="M133.406 137.398V138.758H125.609V137.398H133.406ZM130.234 134.078V142.359H128.789V134.078H130.234ZM142.164 136.906V138.641C142.164 139.573 142.081 140.359 141.914 141C141.747 141.641 141.508 142.156 141.195 142.547C140.883 142.938 140.505 143.221 140.062 143.398C139.625 143.57 139.13 143.656 138.578 143.656C138.141 143.656 137.737 143.602 137.367 143.492C136.997 143.383 136.664 143.208 136.367 142.969C136.076 142.724 135.826 142.406 135.617 142.016C135.409 141.625 135.25 141.151 135.141 140.594C135.031 140.036 134.977 139.385 134.977 138.641V136.906C134.977 135.974 135.06 135.193 135.227 134.562C135.398 133.932 135.641 133.427 135.953 133.047C136.266 132.661 136.641 132.385 137.078 132.219C137.521 132.052 138.016 131.969 138.562 131.969C139.005 131.969 139.411 132.023 139.781 132.133C140.156 132.237 140.49 132.406 140.781 132.641C141.073 132.87 141.32 133.177 141.523 133.562C141.732 133.943 141.891 134.409 142 134.961C142.109 135.513 142.164 136.161 142.164 136.906ZM140.711 138.875V136.664C140.711 136.154 140.68 135.706 140.617 135.32C140.56 134.93 140.474 134.596 140.359 134.32C140.245 134.044 140.099 133.82 139.922 133.648C139.75 133.477 139.549 133.352 139.32 133.273C139.096 133.19 138.844 133.148 138.562 133.148C138.219 133.148 137.914 133.214 137.648 133.344C137.383 133.469 137.159 133.669 136.977 133.945C136.799 134.221 136.664 134.583 136.57 135.031C136.477 135.479 136.43 136.023 136.43 136.664V138.875C136.43 139.385 136.458 139.836 136.516 140.227C136.578 140.617 136.669 140.956 136.789 141.242C136.909 141.523 137.055 141.755 137.227 141.938C137.398 142.12 137.596 142.255 137.82 142.344C138.049 142.427 138.302 142.469 138.578 142.469C138.932 142.469 139.242 142.401 139.508 142.266C139.773 142.13 139.995 141.919 140.172 141.633C140.354 141.341 140.49 140.969 140.578 140.516C140.667 140.057 140.711 139.51 140.711 138.875ZM144.203 142.734C144.203 142.49 144.279 142.284 144.43 142.117C144.586 141.945 144.81 141.859 145.102 141.859C145.393 141.859 145.615 141.945 145.766 142.117C145.922 142.284 146 142.49 146 142.734C146 142.974 145.922 143.177 145.766 143.344C145.615 143.51 145.393 143.594 145.102 143.594C144.81 143.594 144.586 143.51 144.43 143.344C144.279 143.177 144.203 142.974 144.203 142.734ZM155.383 136.906V138.641C155.383 139.573 155.299 140.359 155.133 141C154.966 141.641 154.727 142.156 154.414 142.547C154.102 142.938 153.724 143.221 153.281 143.398C152.844 143.57 152.349 143.656 151.797 143.656C151.359 143.656 150.956 143.602 150.586 143.492C150.216 143.383 149.883 143.208 149.586 142.969C149.294 142.724 149.044 142.406 148.836 142.016C148.628 141.625 148.469 141.151 148.359 140.594C148.25 140.036 148.195 139.385 148.195 138.641V136.906C148.195 135.974 148.279 135.193 148.445 134.562C148.617 133.932 148.859 133.427 149.172 133.047C149.484 132.661 149.859 132.385 150.297 132.219C150.74 132.052 151.234 131.969 151.781 131.969C152.224 131.969 152.63 132.023 153 132.133C153.375 132.237 153.708 132.406 154 132.641C154.292 132.87 154.539 133.177 154.742 133.562C154.951 133.943 155.109 134.409 155.219 134.961C155.328 135.513 155.383 136.161 155.383 136.906ZM153.93 138.875V136.664C153.93 136.154 153.898 135.706 153.836 135.32C153.779 134.93 153.693 134.596 153.578 134.32C153.464 134.044 153.318 133.82 153.141 133.648C152.969 133.477 152.768 133.352 152.539 133.273C152.315 133.19 152.062 133.148 151.781 133.148C151.438 133.148 151.133 133.214 150.867 133.344C150.602 133.469 150.378 133.669 150.195 133.945C150.018 134.221 149.883 134.583 149.789 135.031C149.695 135.479 149.648 136.023 149.648 136.664V138.875C149.648 139.385 149.677 139.836 149.734 140.227C149.797 140.617 149.888 140.956 150.008 141.242C150.128 141.523 150.273 141.755 150.445 141.938C150.617 142.12 150.815 142.255 151.039 142.344C151.268 142.427 151.521 142.469 151.797 142.469C152.151 142.469 152.461 142.401 152.727 142.266C152.992 142.13 153.214 141.919 153.391 141.633C153.573 141.341 153.708 140.969 153.797 140.516C153.885 140.057 153.93 139.51 153.93 138.875ZM159.352 137.102H160.383C160.888 137.102 161.305 137.018 161.633 136.852C161.966 136.68 162.214 136.448 162.375 136.156C162.542 135.859 162.625 135.526 162.625 135.156C162.625 134.719 162.552 134.352 162.406 134.055C162.26 133.758 162.042 133.534 161.75 133.383C161.458 133.232 161.089 133.156 160.641 133.156C160.234 133.156 159.875 133.237 159.562 133.398C159.255 133.555 159.013 133.779 158.836 134.07C158.664 134.362 158.578 134.706 158.578 135.102H157.133C157.133 134.523 157.279 133.997 157.57 133.523C157.862 133.049 158.271 132.672 158.797 132.391C159.328 132.109 159.943 131.969 160.641 131.969C161.328 131.969 161.93 132.091 162.445 132.336C162.961 132.576 163.362 132.935 163.648 133.414C163.935 133.888 164.078 134.479 164.078 135.188C164.078 135.474 164.01 135.781 163.875 136.109C163.745 136.432 163.539 136.734 163.258 137.016C162.982 137.297 162.622 137.529 162.18 137.711C161.737 137.888 161.206 137.977 160.586 137.977H159.352V137.102ZM159.352 138.289V137.422H160.586C161.31 137.422 161.909 137.508 162.383 137.68C162.857 137.852 163.229 138.081 163.5 138.367C163.776 138.654 163.969 138.969 164.078 139.312C164.193 139.651 164.25 139.99 164.25 140.328C164.25 140.859 164.159 141.331 163.977 141.742C163.799 142.154 163.547 142.503 163.219 142.789C162.896 143.076 162.516 143.292 162.078 143.438C161.641 143.583 161.164 143.656 160.648 143.656C160.154 143.656 159.688 143.586 159.25 143.445C158.818 143.305 158.435 143.102 158.102 142.836C157.768 142.565 157.508 142.234 157.32 141.844C157.133 141.448 157.039 140.997 157.039 140.492H158.484C158.484 140.888 158.57 141.234 158.742 141.531C158.919 141.828 159.169 142.06 159.492 142.227C159.82 142.388 160.206 142.469 160.648 142.469C161.091 142.469 161.471 142.393 161.789 142.242C162.112 142.086 162.359 141.852 162.531 141.539C162.708 141.227 162.797 140.833 162.797 140.359C162.797 139.885 162.698 139.497 162.5 139.195C162.302 138.888 162.021 138.661 161.656 138.516C161.297 138.365 160.872 138.289 160.383 138.289H159.352Z" fill="url(#paint2_linear_124_383)"/>
<defs>
<clipPath id="bgblur_0_124_383_clip_path"><path transform="translate(20 20)" d="M0.5 32C0.5 24.4434 0.501062 18.8262 1.08133 14.5103C1.65966 10.2087 2.80508 7.27461 5.03984 5.03984C7.27461 2.80508 10.2087 1.65966 14.5103 1.08133C18.8262 0.501062 24.4434 0.5 32 0.5L251.367 0.5C256.103 0.5 258.379 0.5038 260.218 0.964197C266.019 2.41691 270.468 7.07781 271.648 12.9409C272.022 14.7991 271.92 17.0726 271.699 21.8039L271.694 21.9054C271.485 26.3723 271.376 28.7081 271.759 30.6632C272.958 36.7756 277.496 41.6921 283.494 43.3748C285.412 43.9131 287.749 43.9908 292.218 44.1394L292.32 44.1428L299.229 44.3725C304.536 44.549 308.481 44.6808 311.577 45.0875C314.666 45.4931 316.858 46.1669 318.677 47.3959C320.463 48.6026 321.978 50.1684 323.125 51.9935C324.293 53.8524 324.893 56.0663 325.196 59.1664C325.499 62.2746 325.5 66.2215 325.5 71.532V146C325.5 153.557 325.499 159.174 324.919 163.49C324.34 167.791 323.195 170.725 320.96 172.96C318.725 175.195 315.791 176.34 311.49 176.919C307.174 177.499 301.557 177.5 294 177.5L32 177.5C24.4434 177.5 18.8262 177.499 14.5103 176.919C10.2087 176.34 7.27461 175.195 5.03984 172.96C2.80508 170.725 1.65966 167.791 1.08133 163.49C0.501062 159.174 0.5 153.557 0.5 146L0.5 32Z"/>
</clipPath><linearGradient id="paint0_linear_124_383" x1="326" y1="0" x2="147.806" y2="61.7571" gradientUnits="userSpaceOnUse">
<stop stop-color="#898686"/>
<stop offset="1" stop-color="white" stop-opacity="0"/>
</linearGradient>
<linearGradient id="paint1_linear_124_383" x1="106.293" y1="135.75" x2="119.368" y2="137.123" gradientUnits="userSpaceOnUse">
<stop stop-color="#8788FE"/>
<stop offset="1" stop-color="#696CEE"/>
</linearGradient>
<linearGradient id="paint2_linear_124_383" x1="125" y1="135.814" x2="163.432" y2="144.522" gradientUnits="userSpaceOnUse">
<stop stop-color="#8788FE"/>
<stop offset="1" stop-color="#696CEE"/>
</linearGradient>
</defs>
</svg>
